# AST/ASF file generated using VICON BodyLanguage
# -----------------------------------------------
:version 1.10
:name VICON
:units
  mass 1.0
  length 0.45
  angle deg
:documentation
   .ast/.asf automatically generated from VICON data using
   VICON BodyBuilder and BodyLanguage model FoxedUp or BRILLIANT.MOD
:root
   order TX TY TZ RX RY RZ
   axis XYZ
   position 0 0 0  
   orientation 0 0 0 
:bonedata
  begin
     id 1 
     name lhipjoint
     direction 0.602128 -0.715006 0.355257 
     length 2.21237 
     axis 0 0 0  XYZ
  end
  begin
     id 2 
     name lfemur
     direction 0.34202 -0.939693 0  
     length 6.71649  
     axis 0 0 20  XYZ
    dof rx ry rz
    limits (-160.0 20.0)
           (-70.0 70.0)
           (-60.0 70.0)
  end
  begin
     id 3 
     name ltibia
     direction 0.34202 -0.939693 0   
     length 6.97123   
     axis 0 0 20   XYZ
    dof rx
    limits (-10.0 170.0)
  end
  begin
     id 4 
     name lfoot
     direction 0.0655697 -0.180151 0.981451   
     length 1.80924   
     axis -90 7.62852e-016 20   XYZ
    dof rx rz
    limits (-45.0 90.0)
           (-70.0 20.0)
  end
  begin
     id 5 
     name ltoes
     direction 1.53545e-011 -4.21827e-011 1   
     length 0.916331   
     axis -90 7.62852e-016 20   XYZ
    dof rx
    limits (-90.0 20.0)
  end
  begin
     id 6 
     name rhipjoint
     direction -0.625414 -0.698792 0.347201   
     length 2.2637  
     axis 0 0 0  XYZ 
  end
  begin
     id 7 
     name rfemur
     direction -0.34202 -0.939693 0   
     length 7.07595   
     axis 0 0 -20   XYZ
    dof rx ry rz
    limits (-160.0 20.0)
           (-70.0 70.0)
           (-70.0 60.0)
  end
  begin
     id 8 
     name rtibia
     direction -0.34202 -0.939693 0   
     length 7.22924   
     axis 0 0 -20   XYZ
    dof rx
    limits (-10.0 170.0)
 end
 begin
     id 9 
     name rfoot
     direction -0.0766747 -0.210662 0.974547   
     length 1.98482  
     axis -90 -7.62852e-016 -20   XYZ
    dof rx rz
    limits (-45.0 90.0)
           (-20.0 70.0)
  end
  begin
     id 10 
     name rtoes
     direction -1.53532e-011 -4.21867e-011 1   
     length 0.999842   
     axis -90 -7.62852e-016 -20   XYZ
    dof rx
    limits (-90.0 20.0)
  end
  begin
     id 11 
     name lowerback
     direction -0.0224668 0.997354 -0.0691422   
     length 2.09945   
     axis 0 0 0   XYZ
    dof rx ry rz
    limits (-20.0 45.0)
           (-30.0 30.0)
           (-30.0 30.0)
  end
  begin
     id 12 
     name upperback
     direction 0.0134698 0.998451 -0.0539888   
     length 2.09758   
     axis 0 0 0   XYZ
    dof rx ry rz
    limits (-20.0 45.0)
           (-30.0 30.0)
           (-30.0 30.0)
  end
  begin
     id 13 
     name thorax
     direction 0.0241905 0.99948 -0.0213333   
     length 2.10428   
     axis 0 0 0   XYZ
    dof rx ry rz
    limits (-20.0 45.0)
           (-30.0 30.0)
           (-30.0 30.0)
  end
  begin
     id 14 
     name lowerneck
     direction -0.00866847 0.995978 0.0891737   
     length 1.3959   
     axis 0 0 0   XYZ
    dof rx ry rz
    limits (-20.0 45.0)
           (-30.0 30.0)
           (-30.0 30.0)
  end
  begin
     id 15 
     name upperneck
     direction 0.0680679 0.992203 0.104404   
     length 1.39452   
     axis 0 0 0   XYZ
    dof rx ry rz
    limits (-20.0 45.0)
           (-30.0 30.0)
           (-30.0 30.0)
  end
  begin
     id 16
     name head
     direction 0.0242216 0.999358 0.0264054  
     length 1.40433  
     axis 0 0 0   XYZ
    dof rx ry rz
    limits (-20.0 45.0)
           (-30.0 30.0)
           (-30.0 30.0)
  end
  begin
     id 17 
     name lclavicle
     direction 0.929368 0.362991 -0.0671771  
     length 3.04887  
     axis 0 0 0   XYZ
    dof ry rz
    limits (-20.0 10.0)
           (0.0 20.0)
  end
  begin
     id 18 
     name lhumerus
     direction 1 -4.48967e-011 -7.13741e-028   
     length 4.77195   
     axis -180 -30 -90   XYZ
    dof rx ry rz
    limits (-60.0 90.0)
           (-90.0 90.0)
           (-90.0 90.0)
  end
  begin
     id 19
     name lradius
     direction 1 -4.48977e-011 3.60404e-027   
     length 2.98444   
     axis -180 -30 -90   XYZ
    dof rx
    limits (-10.0 170.0)
  end
  begin
     id 20
     name lwrist
     direction 1 -4.48997e-011 7.54877e-027   
     length 1.49222   
     axis -7.18178e-015 90 90   XYZ
    dof ry
    limits (-180.0 0.0)
 end
  begin
     id 21 
     name lhand
     direction 1 -4.489e-011 1.51105e-026   
     length 0.992285   
     axis -9.63605e-015 90 90   XYZ
    dof rx rz
    limits (-90.0 90.0)
           (-45.0 45.0)
  end
  begin
     id 22 
     name lfingers
     direction 1 -4.48998e-011 3.01948e-026   
     length 0.800006   
     axis -1.92718e-014 90 90   XYZ
    dof rx
    limits (0.0 90.0)
  end
  begin
     id 23
     name lthumb
     direction 0.707107 -6.34881e-011 0.707107   
     length 1.14865   
     axis -90 45 -3.53137e-014   XYZ
    dof rx rz
    limits (-45.0 45.0)
           (-45.0 45.0)
  end
  begin
     id 24 
     name rclavicle
     direction -0.945672 0.324529 0.0196374   
     length 3.4236  
     axis 0 0 0   XYZ 
    dof ry rz
    limits (-10.0 20.0)
           (-20.0 0.0)
  end
  begin
     id 25 
     name rhumerus
     direction -1 -4.4896e-011 1.02757e-029  
     length 4.62052   
     axis -180 30 90   XYZ
    dof rx ry rz
    limits (-90.0 60.0)
           (-90.0 90.0)
           (-90.0 90.0)
  end
  begin
     id 26 
     name rradius
     direction -1 -4.48982e-011 3.85962e-027   
     length 2.95332   
     axis -180 30 90   XYZ
    dof rx
    limits (-10.0 170.0)
  end
  begin
     id 27 
     name rwrist
     direction -1 -4.48961e-011 7.55118e-027   
     length 1.47666   
     axis -7.18178e-015 -90 -90   XYZ
    dof ry
    limits (-180.0 0.0)
  end
  begin
     id 28
     name rhand
     direction -1 -4.48984e-011 1.50994e-026   
     length 0.990956   
     axis -9.63605e-015 -90 -90   XYZ
    dof rx rz
    limits (-90.0 90.0)
           (-45.0 45.0)
  end
  begin
     id 29
     name rfingers
     direction -1 -4.4892e-011 3.02158e-026   
     length 0.798934   
     axis -1.92718e-014 -90 -90   XYZ
    dof rx
    limits (0.0 90.0)
  end
  begin
     id 30
     name rthumb
     direction -0.707107 -6.34916e-011 0.707107   
     length 1.14711   
     axis -90 -45 3.53137e-014   XYZ
    dof rx rz
    limits (-45.0 45.0)
           (-45.0 45.0)
  end
:hierarchy
  begin
    root lhipjoint rhipjoint lowerback
    lhipjoint lfemur
    lfemur ltibia
    ltibia lfoot
    lfoot ltoes
    rhipjoint rfemur
    rfemur rtibia
    rtibia rfoot
    rfoot rtoes
    lowerback upperback
    upperback thorax
    thorax lowerneck lclavicle rclavicle
    lowerneck upperneck
    upperneck head
    lclavicle lhumerus
    lhumerus lradius
    lradius lwrist
    lwrist lhand lthumb
    lhand lfingers
    rclavicle rhumerus
    rhumerus rradius
    rradius rwrist
    rwrist rhand rthumb
    rhand rfingers
  end

#!OML:ASF H:\ManfredObstacles\Project 1\Capture day 1\Session 1\Male.ASF
:FULLY-SPECIFIED
:DEGREES
312
root -1.38902 16.4936 4.62414 -170.599 31.7239 -177.949
lowerback -8.09931 -0.934151 -1.67765
upperback 2.50808 -1.08545 0.345213
thorax 7.22477 -0.613891 1.15186
lowerneck 0.612614 -0.907919 -5.73407
upperneck -4.58644 -0.7976 9.5547
head -1.52323 -0.400363 4.19703
rclavicle 8.05078e-015 1.19271e-015
rhumerus -33.8251 -18.756 -77.5635
rradius 28.4536
rwrist 30.4208
rhand 1.97782 -6.25822
rfingers 7.12502
rthumb 27.4834 -34.2728
lclavicle 8.05078e-015 1.19271e-015
lhumerus -31.0703 13.4307 80.4803
lradius 20.9807
lwrist -29.1505
lhand -4.39334 10.0831
lfingers 7.12502
lthumb 21.3762 38.9239
rfemur -17.439 -10.0721 27.6995
rtibia 26.4316
rfoot -15.0954 20.413
rtoes 31.8736
lfemur -35.4719 -1.32248 -17.1716
ltibia 61.4783
lfoot -0.331997 4.25708
ltoes 12.0185
313
root -1.27924 16.4676 4.46903 -170.605 32.3128 -177.829
lowerback -7.9295 -0.75198 -1.53947
upperback 2.63766 -0.852027 0.271961
thorax 7.25324 -0.491753 1.03169
lowerneck 0.153704 -0.839285 -5.76732
upperneck -4.69158 -0.681235 9.43099
head -1.48379 -0.327861 4.15416
rclavicle 2.35063e-014 -7.95139e-015
rhumerus -32.6217 -17.7515 -78.6824
rradius 28.622
rwrist 29.6151
rhand 1.84001 -6.37741
rfingers 7.12502
rthumb 27.3516 -34.4128
lclavicle 2.35063e-014 -7.95139e-015
lhumerus -31.3484 13.5737 80.2593
lradius 21.1855
lwrist -29.322
lhand -4.55014 10.139
lfingers 7.12502
lthumb 21.2256 38.9969
rfemur -16.678 -9.43963 27.6393
rtibia 26.6829
rfoot -15.7794 20.4263
rtoes 31.9396
lfemur -36.2474 -1.53403 -16.8688
ltibia 58.2918
lfoot -1.69913 4.48971
ltoes 10.5547
314
root -1.1661 16.4465 4.30989 -170.543 32.7 -177.786
lowerback -7.94179 -0.623746 -1.49311
upperback 2.73494 -0.678628 0.203168
thorax 7.35715 -0.403629 0.957377
lowerneck -0.156764 -0.782544 -5.64348
upperneck -4.77984 -0.59593 9.14552
head -1.4626 -0.276575 4.02429
rclavicle 9.54166e-015 -6.75868e-015
rhumerus -31.5628 -16.8758 -79.6685
rradius 28.8426
rwrist 28.8115
rhand 1.59639 -6.24861
rfingers 7.12502
rthumb 27.1185 -34.3206
lclavicle 9.54166e-015 -6.75868e-015
lhumerus -31.526 13.5103 80.1476
lradius 21.2082
lwrist -29.1069
lhand -4.92105 10.2925
lfingers 7.12502
lthumb 20.8693 39.19
rfemur -15.8908 -8.84772 27.5489
rtibia 26.6874
rfoot -16.2426 20.4195
rtoes 32.8632
lfemur -36.8158 -1.8937 -16.5313
ltibia 54.5578
lfoot -2.72732 4.87185
ltoes 9.81667
315
root -1.0515 16.4274 4.14577 -170.31 33.0406 -177.49
lowerback -7.93783 -0.494395 -1.22569
upperback 2.70382 -0.535163 0.199716
thorax 7.31419 -0.32071 0.823861
lowerneck -0.172801 -0.680669 -5.55877
upperneck -4.84333 -0.469684 8.85284
head -1.4899 -0.213083 3.90292
rclavicle -5.79457e-014 -1.11319e-014
rhumerus -30.8205 -16.0013 -80.4973
rradius 29.0942
rwrist 28.3445
rhand 1.52836 -6.03668
rfingers 7.12502
rthumb 27.0534 -34.1188
lclavicle -5.79457e-014 -1.11319e-014
lhumerus -31.8211 13.9295 79.7845
lradius 21.0117
lwrist -29.4129
lhand -5.16017 10.3277
lfingers 7.12502
lthumb 20.6395 39.2503
rfemur -15.0392 -8.35334 27.7016
rtibia 26.5194
rfoot -16.8389 20.3469
rtoes 33.3119
lfemur -37.0776 -2.23387 -15.926
ltibia 50.3106
lfoot -3.51653 5.27247
ltoes 11.5848
316
root -0.938691 16.4184 3.97554 -170.23 33.3937 -177.295
lowerback -7.8058 -0.378979 -1.03301
upperback 2.63989 -0.404156 0.20336
thorax 7.1648 -0.247014 0.738594
lowerneck -0.0958993 -0.572446 -5.59539
upperneck -4.82806 -0.345967 8.62726
head -1.50822 -0.152462 3.82961
rclavicle 7.0171e-014 -1.59028e-014
rhumerus -30.2668 -15.2334 -81.1315
rradius 29.3663
rwrist 28.4829
rhand 1.80338 -5.78294
rfingers 7.12502
rthumb 27.3165 -33.8239
lclavicle 7.0171e-014 -1.59028e-014
lhumerus -32.0929 14.9447 79.208
lradius 20.5361
lwrist -30.3364
lhand -5.21801 10.3095
lfingers 7.12502
lthumb 20.5839 39.2381
rfemur -14.0368 -8.12218 27.7249
rtibia 26.232
rfoot -17.6101 20.2936
rtoes 32.5516
lfemur -36.9481 -2.67207 -15.3632
ltibia 45.6039
lfoot -3.4275 5.03695
ltoes 12.6884
317
root -0.82754 16.4077 3.80194 -170.307 33.7343 -177.357
lowerback -7.71531 -0.27399 -1.04184
upperback 2.61594 -0.260875 0.158304
thorax 7.08382 -0.175568 0.716453
lowerneck -0.0402562 -0.49103 -5.66452
upperneck -4.80025 -0.255812 8.4511
head -1.51599 -0.107693 3.78021
rclavicle 2.9768e-014 -1.59028e-014
rhumerus -29.7934 -14.3949 -81.7426
rradius 29.7011
rwrist 28.4572
rhand 1.97724 -5.68552
rfingers 7.12502
rthumb 27.4828 -33.7002
lclavicle 2.9768e-014 -1.59028e-014
lhumerus -32.2239 15.8914 78.6839
lradius 19.95
lwrist -31.1579
lhand -5.19309 10.3652
lfingers 7.12502
lthumb 20.6079 39.2913
rfemur -13.0143 -8.00455 27.4984
rtibia 25.8507
rfoot -18.1307 20.4184
rtoes 32.2961
lfemur -36.5421 -3.15995 -15.0205
ltibia 40.5696
lfoot -3.22187 4.58916
ltoes 13.1902
318
root -0.714992 16.3961 3.62405 -170.241 34.1324 -177.364
lowerback -7.81346 -0.127053 -0.993037
upperback 2.59042 -0.0641859 0.0862088
thorax 7.10881 -0.0754054 0.640344
lowerneck 0.025012 -0.420956 -5.63609
upperneck -4.83979 -0.170355 8.30922
head -1.54667 -0.066295 3.72477
rclavicle -2.57426e-014 -9.54166e-015
rhumerus -29.3593 -13.6189 -82.3858
rradius 30
rwrist 28.1819
rhand 2.05152 -5.83475
rfingers 7.12502
rthumb 27.5539 -33.8381
lclavicle -2.57426e-014 -9.54166e-015
lhumerus -32.3481 16.6313 78.1576
lradius 19.4686
lwrist -31.8241
lhand -5.09026 10.3773
lfingers 7.12502
lthumb 20.7067 39.2927
rfemur -12.0447 -7.61312 27.3109
rtibia 25.4284
rfoot -18.4397 20.5243
rtoes 32.652
lfemur -36.0416 -3.46497 -14.6842
ltibia 35.3503
lfoot -2.66407 3.86166
ltoes 10.2133
